<svg id="Camada_2" data-name="Camada 2" xmlns="http://www.w3.org/2000/svg" viewBox="0 0 211.69 52.43">
  <defs>
    <style>
      .cls-1 { fill: #01c38e; }
      .cls-2 { fill: #f4f4f4; }
    </style>
  </defs>
  <g id="Camada_1-2" data-name="Camada 1">
    <g>
      <g>
        <path class="cls-2" d="M169.37,49.79c.58,0,1.06-.1,1.44-.29v-1.39h-1.46v-1.47h3.09v3.78c-.71.6-1.74.9-3.07.9-.56,0-1.06-.07-1.52-.21-.46-.14-.84-.34-1.16-.58s-.58-.54-.8-.88c-.22-.34-.37-.7-.48-1.09-.1-.39-.15-.8-.15-1.23s.05-.84.15-1.23c.1-.39.26-.75.48-1.09.22-.34.48-.63.8-.88s.7-.44,1.16-.58c.46-.14.96-.21,1.52-.21s1.13.07,1.65.21,1.01.39,1.47.76l-.9,1.17c-.61-.41-1.35-.61-2.22-.61-.39,0-.73.06-1.02.19-.3.12-.53.3-.72.53-.18.23-.32.49-.41.78-.09.3-.14.62-.14.98s.05.68.14.98c.09.3.23.56.41.78.18.23.42.4.72.53.3.13.64.19,1.02.19Z"/>
        <path class="cls-2" d="M177.15,51.1h-1.76v-7.57h3.39c.5,0,.94.07,1.33.2.39.14.7.32.93.56s.42.51.54.81c.12.3.18.63.18.99,0,.29-.04.55-.12.79s-.19.45-.34.62c-.15.17-.3.32-.48.44-.17.12-.36.23-.57.32l1.58,2.84h-1.89l-1.46-2.61h-1.34v2.61ZM178.78,45.05h-1.63v2.07h1.63c.43,0,.73-.1.92-.29.19-.19.28-.44.28-.75s-.09-.55-.28-.75c-.19-.19-.49-.29-.92-.29Z"/>
        <path class="cls-2" d="M187.21,49.65c.21.09.48.13.8.13s.58-.05.79-.13.38-.23.5-.42c.12-.19.2-.41.25-.66.05-.25.07-.55.07-.91v-4.14h1.76v4.14c0,2.43-1.12,3.65-3.37,3.65s-3.38-1.22-3.38-3.65v-4.14h1.76v4.14c0,.36.02.66.07.91.05.25.13.47.25.66.12.19.29.33.5.42Z"/>
        <path class="cls-2" d="M196.13,51.1h-1.76v-7.57h3.39c.94,0,1.69.23,2.23.7.54.46.81,1.12.81,1.95s-.27,1.49-.81,1.95c-.54.46-1.29.7-2.23.7h-1.63v2.27ZM197.77,45.05h-1.63v2.25h1.63c.42,0,.73-.1.95-.29s.32-.47.32-.83-.11-.64-.32-.84-.53-.29-.95-.29Z"/>
        <path class="cls-2" d="M206.07,43.53c.46-.14.96-.21,1.52-.21s1.06.07,1.52.21c.46.14.84.34,1.16.58s.58.54.8.88c.22.34.37.7.48,1.09.1.39.15.8.15,1.23s-.05.84-.15,1.23c-.1.39-.26.75-.48,1.09-.22.34-.48.63-.8.88s-.7.44-1.16.58c-.46.14-.96.21-1.52.21s-1.06-.07-1.52-.21c-.46-.14-.84-.34-1.16-.58s-.58-.54-.8-.88c-.22-.34-.37-.7-.48-1.09-.1-.39-.15-.8-.15-1.23s.05-.84.15-1.23c.1-.39.26-.75.48-1.09.22-.34.48-.63.8-.88s.7-.44,1.16-.58ZM208.62,45.03c-.3-.12-.64-.19-1.02-.19s-.73.06-1.02.19c-.3.12-.53.3-.72.53-.18.23-.32.49-.41.78-.09.3-.14.62-.14.98s.05.68.14.98c.09.3.23.56.41.78.18.23.42.4.72.53.3.13.64.19,1.02.19s.73-.06,1.02-.19c.3-.12.53-.3.72-.53.18-.23.32-.49.41-.78.09-.3.14-.62.14-.98s-.05-.68-.14-.98c-.09-.3-.23-.56-.41-.78-.18-.23-.42-.4-.72-.53Z"/>
      </g>
      <g>
        <polygon class="cls-1" points="45.72 20.78 31.12 20.78 20.78 0 45.72 0 45.72 20.78"/>
        <polygon class="cls-1" points="0 30.32 0 51.1 20.78 30.32 20.78 51.1 35.94 51.1 60.88 51.1 35.94 30.32 20.78 30.32 20.78 0 0 0 0 30.32"/>
      </g>
      <g>
        <path class="cls-2" d="M80.99,51.69h-10.22V.74h10.22v50.96Z"/>
        <path class="cls-2" d="M129.64,34.33l.07.21c.09,5.48-1.58,9.83-5.02,13.05-3.44,3.22-8.22,4.83-14.33,4.83s-11.12-1.97-14.94-5.91c-3.83-3.94-5.74-9.02-5.74-15.22v-10.11c0-6.18,1.87-11.26,5.6-15.22,3.73-3.97,8.59-5.95,14.56-5.95,6.3,0,11.22,1.62,14.77,4.85,3.55,3.23,5.27,7.64,5.18,13.21l-.07.21h-9.94c0-3.36-.81-5.93-2.42-7.72-1.61-1.78-4.12-2.68-7.52-2.68-3.06,0-5.48,1.24-7.28,3.72-1.8,2.48-2.69,5.65-2.69,9.49v10.17c0,3.89.95,7.08,2.83,9.56s4.44,3.72,7.66,3.72,5.56-.86,7.09-2.57c1.53-1.71,2.29-4.26,2.29-7.65h9.9Z"/>
        <path class="cls-2" d="M168.55,30.52h-21.35v21.17h-10.22V.74h35.14v7.87h-24.92v14.03h21.35v7.87Z"/>
      </g>
    </g>
  </g>
</svg>
